<svg xmlns="http://www.w3.org/2000/svg" width="1200" height="675" viewBox="0 0 1200 675" role="img" aria-labelledby="title desc">
  <title id="title">Snapdrop Alternative</title>
  <desc id="desc">Two devices connected by a fast direct browser-based transfer line.</desc>
  <defs>
    <linearGradient id="bg" x1="0" x2="1" y1="0" y2="1">
      <stop offset="0%" stop-color="#e8f4ff"/>
      <stop offset="100%" stop-color="#eefcf4"/>
    </linearGradient>
    <linearGradient id="accent" x1="0" x2="1" y1="0" y1="0">
      <stop offset="0%" stop-color="#067a69"/>
      <stop offset="100%" stop-color="#118f7c"/>
    </linearGradient>
  </defs>
  <rect width="1200" height="675" fill="url(#bg)"/>
  <circle cx="180" cy="120" r="100" fill="#9fd8ff" opacity="0.35"/>
  <circle cx="1010" cy="540" r="130" fill="#ffd1b4" opacity="0.35"/>
  <rect x="140" y="170" width="260" height="360" rx="30" fill="#ffffff" stroke="#cfdff0" stroke-width="8"/>
  <rect x="175" y="225" width="190" height="250" rx="18" fill="#f8fbff"/>
  <rect x="800" y="155" width="260" height="370" rx="18" fill="#ffffff" stroke="#cfdff0" stroke-width="8"/>
  <rect x="840" y="215" width="180" height="250" rx="14" fill="#f8fbff"/>
  <path d="M400 330 C510 255, 660 255, 800 330" stroke="url(#accent)" stroke-width="12" fill="none" stroke-linecap="round"/>
  <path d="M400 390 C510 465, 660 465, 800 390" stroke="url(#accent)" stroke-width="12" fill="none" stroke-linecap="round"/>
  <circle cx="400" cy="360" r="26" fill="#067a69"/>
  <circle cx="800" cy="360" r="26" fill="#118f7c"/>
  <text x="600" y="96" text-anchor="middle" font-family="Manrope, Segoe UI, sans-serif" font-size="46" font-weight="800" fill="#11233c">Snapdrop Alternative</text>
  <text x="600" y="136" text-anchor="middle" font-family="Manrope, Segoe UI, sans-serif" font-size="24" font-weight="600" fill="#5c708b">Fast direct sharing with QR based connection</text>
</svg>
